<svg xmlns="http://www.w3.org/2000/svg" viewBox="0 0 16 16" fill="currentColor">
  <!-- Cage frame -->
  <rect x="0.75" y="0.75" width="14.5" height="14.5" rx="2.5" fill="none" stroke="currentColor" stroke-width="1.5"/>
  <!-- 2 bars (keeping your adjusted positions) -->
  <rect x="3.06" y="0.98" width="1.4" height="13.68"/>
  <rect x="11.55" y="1.39" width="1.4" height="13.47"/>
  <!-- Cat ears (flattened transforms) -->
  <polygon points="5.24,7.92 5.84,5.22 7.24,7.52"/>
  <polygon points="8.76,7.64 10.16,5.34 10.76,8.04"/>
  <!-- Cat face: bezier ellipse + UwU eyes + w-mouth as compound evenodd path -->
  <path fill-rule="evenodd" d="
    M 11.197 9.08 C 11.197 10.521 9.765 11.691 8 11.691
    C 6.233 11.691 4.803 10.521 4.803 9.08
    C 4.803 7.637 6.233 6.468 8 6.468
    C 9.765 6.468 11.197 7.637 11.197 9.08 Z
    M 5.8,8.5 L 6.95,9.08 L 5.8,9.66 Z
    M 10.2,8.5 L 9.05,9.08 L 10.2,9.66 Z
    M 7.3,10.5 Q 7.65,10.05 8.0,10.5 Q 8.35,10.05 8.7,10.5 L 8.7,10.85 L 7.3,10.85 Z
  "/>
  <!-- Whiskers (flattened transforms) -->
  <g stroke="currentColor" stroke-width="0.8" fill="none" stroke-linecap="round">
    <line x1="5.65" y1="8.91" x2="4.57" y2="8.51"/>
    <line x1="5.65" y1="9.91" x2="4.57" y2="10.31"/>
    <line x1="10.35" y1="8.91" x2="11.43" y2="8.51"/>
    <line x1="10.35" y1="9.91" x2="11.43" y2="10.31"/>
  </g>
</svg>